<svg xmlns="http://www.w3.org/2000/svg" viewBox="0 0 32 32"><defs><style>.cls-1{fill:none;stroke:#000;stroke-linecap:round;stroke-linejoin:round;stroke-width:2px;}</style></defs><title>fog</title><g id="fog"><path class="cls-1" d="M5,7.12c3.66,0,3.66,1.76,7.33,1.76S16,7.12,19.66,7.12,23.33,8.88,27,8.88"/><path class="cls-1" d="M5,11.12c3.66,0,3.66,1.76,7.33,1.76s3.67-1.76,7.33-1.76,3.67,1.76,7.34,1.76"/><path class="cls-1" d="M5,15.12c3.66,0,3.66,1.76,7.33,1.76s3.67-1.76,7.33-1.76,3.67,1.76,7.34,1.76"/><path class="cls-1" d="M5,19.12c3.66,0,3.66,1.76,7.33,1.76s3.67-1.76,7.33-1.76,3.67,1.76,7.34,1.76"/><path class="cls-1" d="M5,23.12c3.66,0,3.66,1.76,7.33,1.76s3.67-1.76,7.33-1.76,3.67,1.76,7.34,1.76"/></g></svg>