<svg xmlns="http://www.w3.org/2000/svg" viewBox="0 0 32 32"><defs><style>.cls-1{fill:none;stroke:#000;stroke-linecap:round;stroke-linejoin:round;stroke-width:2px;}</style></defs><title>raindrop_2</title><g id="raindrop"><path class="cls-1" d="M15,12.73A3.4,3.4,0,0,1,11.5,16,3.4,3.4,0,0,1,8,12.73C8,10.92,11.5,4,11.5,4S15,10.92,15,12.73Z"/><path class="cls-1" d="M24,19a3,3,0,0,1-6,0c0-1.66,3-8,3-8S24,17.34,24,19Z"/><path class="cls-1" d="M16,25.82A2.1,2.1,0,0,1,14,28a2.1,2.1,0,0,1-2-2.18C12,24.61,14,20,14,20S16,24.61,16,25.82Z"/></g></svg>