<svg xmlns="http://www.w3.org/2000/svg" viewBox="0 0 32 32"><defs><style>.cls-1{fill:none;stroke:#000;stroke-linecap:round;stroke-linejoin:round;stroke-width:2px;}</style></defs><title>snowfall_1</title><g id="snowfall"><path class="cls-1" d="M24.94,12.12A7,7,0,0,0,11.08,12H8a4,4,0,0,0,0,8H24a4,4,0,0,0,.94-7.88Z"/><path class="cls-1" d="M5.24,12.36a5,5,0,0,1,8.31-5.57"/><line class="cls-1" x1="8" y1="23" x2="8" y2="23"/><line class="cls-1" x1="12" y1="23" x2="12" y2="23"/><line class="cls-1" x1="16" y1="23" x2="16" y2="23"/><line class="cls-1" x1="20" y1="23" x2="20" y2="23"/><line class="cls-1" x1="24" y1="23" x2="24" y2="23"/><line class="cls-1" x1="8" y1="27" x2="8" y2="27"/><line class="cls-1" x1="12" y1="27" x2="12" y2="27"/><line class="cls-1" x1="16" y1="27" x2="16" y2="27"/><line class="cls-1" x1="20" y1="27" x2="20" y2="27"/><line class="cls-1" x1="24" y1="27" x2="24" y2="27"/></g></svg>