<svg xmlns="http://www.w3.org/2000/svg" viewBox="0 0 32 32"><defs><style>.cls-1{fill:none;stroke:#000;stroke-linecap:round;stroke-linejoin:round;stroke-width:2px;}</style></defs><title>snowflake</title><g id="snowflake"><circle class="cls-1" cx="16" cy="16" r="3"/><polyline class="cls-1" points="16 13 16 7 19 4"/><line class="cls-1" x1="16" y1="7" x2="13" y2="4"/><polyline class="cls-1" points="16 19 16 25 19 28"/><line class="cls-1" x1="16" y1="25" x2="13" y2="28"/><polyline class="cls-1" points="19 16 25 16 28 19"/><line class="cls-1" x1="25" y1="16" x2="28" y2="13"/><polyline class="cls-1" points="18.17 13.83 21.94 10.06 25.95 10.29"/><line class="cls-1" x1="21.94" y1="10.06" x2="21.71" y2="6.05"/><polyline class="cls-1" points="18.17 18.17 21.94 21.94 21.71 25.95"/><line class="cls-1" x1="21.94" y1="21.94" x2="25.95" y2="21.71"/><polyline class="cls-1" points="13.83 18.17 10.06 21.94 6.05 21.71"/><line class="cls-1" x1="10.06" y1="21.94" x2="10.29" y2="25.95"/><polyline class="cls-1" points="13.83 13.83 10.06 10.06 10.29 6.05"/><line class="cls-1" x1="10.06" y1="10.06" x2="6.05" y2="10.29"/><polyline class="cls-1" points="13 16 7 16 4 19"/><line class="cls-1" x1="7" y1="16" x2="4" y2="13"/></g></svg>