<svg xmlns="http://www.w3.org/2000/svg" viewBox="0 0 32 32"><defs><style>.cls-1{fill:none;stroke:#000;stroke-linecap:round;stroke-linejoin:round;stroke-width:2px;}</style></defs><title>snowfall</title><g id="snowfall-2" data-name="snowfall"><path class="cls-1" d="M24.94,11.12A7,7,0,0,0,11.08,11H8a4,4,0,0,0,0,8H24a4,4,0,0,0,.94-7.88Z"/><line class="cls-1" x1="8" y1="22" x2="8" y2="22"/><line class="cls-1" x1="12" y1="22" x2="12" y2="22"/><line class="cls-1" x1="16" y1="22" x2="16" y2="22"/><line class="cls-1" x1="20" y1="22" x2="20" y2="22"/><line class="cls-1" x1="24" y1="22" x2="24" y2="22"/><line class="cls-1" x1="8" y1="25" x2="8" y2="25"/><line class="cls-1" x1="12" y1="25" x2="12" y2="25"/><line class="cls-1" x1="16" y1="25" x2="16" y2="25"/><line class="cls-1" x1="20" y1="25" x2="20" y2="25"/><line class="cls-1" x1="24" y1="25" x2="24" y2="25"/><line class="cls-1" x1="8" y1="28" x2="8" y2="28"/><line class="cls-1" x1="12" y1="28" x2="12" y2="28"/><line class="cls-1" x1="16" y1="28" x2="16" y2="28"/><line class="cls-1" x1="20" y1="28" x2="20" y2="28"/><line class="cls-1" x1="24" y1="28" x2="24" y2="28"/></g></svg>